PathFileType	4	(X/Y/Z)	s05c0001.trc
DataRate	CameraRate	NumFrames	NumMarkers	Units	OrigDataRate	OrigDataStartFrame	OrigNumFrames
200	200	6	49	mm	200	1500	2000
Frame#	Time	racr			lacr			c7			jug			rlel			rdr			llel			ldr			s2			lic			ric			lasi			rasi			rpsi			lpsi			rgt			lgt			rth1			rth2			rth3			rth4			rlfc			rmfc			rsh1			rsh2			rsh3			rsh4			rlmal			rmmal			rcal			rtoe			rmt5			rmt1			lth1			lth2			lth4			lth3			llfc			lmfc			lsh1			lsh2			lsh3			lsh4			llmal			lmmal			lcal			ltoe			lmt1			lmt5			
		X1	Y1	Z1	X2	Y2	Z2	X3	Y3	Z3	X4	Y4	Z4	X5	Y5	Z5	X6	Y6	Z6	X7	Y7	Z7	X8	Y8	Z8	X9	Y9	Z9	X10	Y10	Z10	X11	Y11	Z11	X12	Y12	Z12	X13	Y13	Z13	X14	Y14	Z14	X15	Y15	Z15	X16	Y16	Z16	X17	Y17	Z17	X18	Y18	Z18	X19	Y19	Z19	X20	Y20	Z20	X21	Y21	Z21	X22	Y22	Z22	X23	Y23	Z23	X24	Y24	Z24	X25	Y25	Z25	X26	Y26	Z26	X27	Y27	Z27	X28	Y28	Z28	X29	Y29	Z29	X30	Y30	Z30	X31	Y31	Z31	X32	Y32	Z32	X33	Y33	Z33	X34	Y34	Z34	X35	Y35	Z35	X36	Y36	Z36	X37	Y37	Z37	X38	Y38	Z38	X39	Y39	Z39	X40	Y40	Z40	X41	Y41	Z41	X42	Y42	Z42	X43	Y43	Z43	X44	Y44	Z44	X45	Y45	Z45	X46	Y46	Z46	X47	Y47	Z47	X48	Y48	Z48	X49	Y49	Z49	
1500	7.5000	264.871582	1528.906738	349.997253	253.002213	1536.506104	2.859660	198.048996	1571.457031	172.529175	342.148529	1485.294067	171.435471	234.780334	1282.459106	535.285034	306.412048	1138.003174	743.446655	199.907913	1294.507324	-194.289963	233.358704	1159.547729	-431.687469	173.752396	1035.543579	180.411560	315.307709	1095.903076	30.740349	317.945801	1076.583130	316.443329	368.390472	1029.834106	62.714928	374.713104	1020.802917	284.147461	196.963287	1068.133789	223.610092	194.521667	1072.205322	134.250641	269.165894	923.478149	334.310150	241.600693	954.033447	10.215167	272.903412	825.244446	350.595215	285.194305	736.363708	349.723022	251.148041	656.108826	337.798431	321.728485	732.719055	341.084137	254.419647	507.695038	312.263245	247.001221	506.849976	211.192505	201.445831	410.139038	339.889191	217.095032	322.631683	330.860046	189.375549	242.122849	323.657928	249.359314	323.322906	308.179321	187.074997	109.590584	305.770386	212.857071	124.573402	227.889160	136.842514	62.399128	249.259995	424.681732	81.047195	309.470551	317.313873	44.859512	355.997314	350.555511	47.207226	242.560898	259.264252	822.273438	-11.131277	281.819366	739.493347	-5.076397	317.789307	739.444153	7.191156	256.856293	652.627502	5.999874	245.113358	517.028992	38.720821	238.056732	509.230011	138.726944	194.442368	400.071167	12.722490	209.795425	314.056458	22.756340	178.601120	231.014328	27.114290	242.082703	314.012329	43.284760	183.165451	108.800385	41.798058	211.759995	127.575768	115.090271	136.948395	57.379971	94.044548	425.028046	79.413971	39.347725	351.259155	48.213596	106.010658	312.830353	38.245224	-5.449165	
1501	7.5050	264.847260	1528.907349	350.009369	253.001297	1536.520752	2.873640	198.094681	1571.476807	172.476105	342.135956	1485.309692	171.455048	234.751785	1282.500610	535.299133	306.411346	1137.997314	743.448730	199.905121	1294.517090	-194.276276	233.377426	1159.539429	-431.684082	173.747192	1035.547241	180.415787	315.293243	1095.907104	30.739275	317.950104	1076.590942	316.449097	368.388367	1029.828613	62.713619	374.693481	1020.793213	284.139435	196.925354	1068.141724	223.630569	194.493576	1072.209961	134.254486	269.147675	923.467651	334.301453	241.576385	954.030640	10.197411	272.884766	825.234253	350.566132	285.187836	736.363708	349.699402	251.129501	656.111572	337.799744	321.722961	732.724609	341.080322	254.431076	507.686432	312.254730	247.004333	506.846283	211.194183	201.429337	410.158661	339.899048	217.078735	322.637207	330.869385	189.378510	242.139221	323.663361	249.367004	323.301086	308.161682	187.076904	109.592598	305.773010	212.839279	124.556587	227.877319	136.833984	62.392792	249.244995	424.684418	81.045746	309.473480	317.311768	44.844849	356.001892	350.555023	47.216457	242.566986	259.261078	822.278564	-11.128654	281.800446	739.498962	-5.079446	317.766663	739.446228	7.183903	256.830627	652.609863	6.004281	245.114075	517.030334	38.698978	238.052811	509.246399	138.733795	194.434189	400.068604	12.724186	209.794022	314.046692	22.781918	178.592880	231.013000	27.114405	242.076248	314.025604	43.286961	183.175629	108.801323	41.795902	211.771347	127.568108	115.078613	136.944885	57.375393	94.044540	425.034180	79.420937	39.354305	351.247131	48.242504	106.028336	312.832184	38.241722	-5.446554	
1502	7.5100	264.851440	1528.903442	349.993530	253.020538	1536.535645	2.878826	198.048996	1571.457031	172.529160	342.137329	1485.311401	171.461609	234.760834	1282.455078	535.293091	306.417236	1137.997192	743.456909	199.904251	1294.514404	-194.274460	233.397232	1159.541992	-431.666290	173.710892	1035.534668	180.417221	315.280029	1095.907471	30.739454	317.915802	1076.588745	316.453125	368.350647	1029.832642	62.698578	374.665649	1020.803589	284.150116	196.904739	1068.127930	223.626801	194.478119	1072.208740	134.246841	269.147583	923.465698	334.296021	241.562332	954.041199	10.205009	272.876495	825.234192	350.564362	285.187805	736.376770	349.697021	251.139420	656.109009	337.790985	321.722961	732.724609	341.080322	254.410126	507.678284	312.260895	247.004333	506.846283	211.194168	201.434265	410.153809	339.891968	217.083801	322.633087	330.861755	189.370026	242.135727	323.656708	249.355484	323.291779	308.159271	187.082352	109.595695	305.765747	212.856400	124.576462	227.887329	136.849777	62.397697	249.253876	424.691254	81.044930	309.467682	317.291138	44.848465	355.994324	350.569336	47.217621	242.572098	259.239288	822.278015	-11.130039	281.787872	739.513794	-5.095217	317.755737	739.441040	7.187810	256.835541	652.603821	5.989949	245.098007	517.040344	38.697506	238.040894	509.235565	138.721878	194.431168	400.060638	12.733267	209.783325	314.049774	22.763002	178.598083	231.009949	27.117008	242.075287	314.010742	43.287769	183.176712	108.804031	41.787518	211.771957	127.566727	115.077972	136.952759	57.375050	94.041512	425.036713	79.421974	39.350735	351.243317	48.228752	106.027023	312.840240	38.242722	-5.447872	
1503	7.5150	264.837952	1528.894409	350.019135	253.014603	1536.542114	2.868505	198.053528	1571.457397	172.501053	342.129547	1485.323975	171.475983	234.751526	1282.461426	535.322998	306.415253	1137.985718	743.469421	199.904816	1294.507568	-194.249939	233.407867	1159.537842	-431.639648	173.699921	1035.535645	180.415436	315.236725	1095.905273	30.728806	317.914032	1076.573120	316.441986	368.333710	1029.834351	62.693256	374.661652	1020.802002	284.134003	196.896545	1068.126709	223.613449	194.450760	1072.187988	134.255249	269.126068	923.462830	334.293610	241.544250	954.042542	10.195555	272.867798	825.244263	350.546204	285.187744	736.366211	349.684631	251.121338	656.103760	337.774597	321.702606	732.711731	341.063995	254.418777	507.691895	312.256744	246.968445	506.848175	211.184494	201.419724	410.133667	339.896423	217.074539	322.631226	330.859100	189.382401	242.131729	323.667053	249.340790	323.284393	308.158813	187.083481	109.594154	305.766205	212.857635	124.568237	227.881851	136.832413	62.393791	249.241592	424.677216	81.054916	309.482208	317.295380	44.858601	355.993774	350.569336	47.217617	242.572098	259.205780	822.279114	-11.127933	281.771454	739.513916	-5.097972	317.736664	739.428833	7.165832	256.808868	652.603943	5.977422	245.091431	517.034119	38.692661	238.041397	509.232117	138.715988	194.416534	400.061218	12.724225	209.770676	314.048889	22.763197	178.577026	230.999252	27.108633	242.059708	314.006104	43.279572	183.174011	108.787827	41.795288	211.751022	127.579086	115.078171	136.948273	57.386002	94.053741	425.032196	79.420761	39.356491	351.220337	48.218788	106.025932	312.827759	38.246704	-5.448004	
1504	7.5200	264.848602	1528.895752	350.035858	253.012344	1536.543213	2.880825	198.042847	1571.471558	172.518799	342.121002	1485.304688	171.480606	234.744873	1282.466064	535.325378	306.436249	1137.961304	743.466736	199.904877	1294.507690	-194.250259	233.421234	1159.542603	-431.645691	173.662155	1035.526123	180.420578	315.223877	1095.910034	30.734629	317.874786	1076.577026	316.440247	368.330383	1029.842285	62.699451	374.658051	1020.789917	284.130981	196.886505	1068.119751	223.631195	194.414917	1072.177368	134.252182	269.110229	923.462708	334.301392	241.523285	954.048157	10.193197	272.837311	825.250549	350.540344	285.165344	736.362793	349.698792	251.118073	656.098633	337.778046	321.702423	732.713013	341.068329	254.397766	507.680023	312.248840	246.954498	506.844604	211.186127	201.431015	410.152863	339.890594	217.068802	322.628693	330.859833	189.359573	242.112335	323.666595	249.338348	323.299377	308.169617	187.087509	109.595367	305.754303	212.853027	124.563057	227.891785	136.829681	62.403969	249.245285	424.682983	81.045090	309.466461	317.299347	44.848518	356.009277	350.568695	47.218998	242.570587	259.204437	822.275452	-11.121526	281.750214	739.517151	-5.110559	317.709290	739.426697	7.167452	256.797729	652.611267	5.978099	245.072235	517.026855	38.688766	238.024216	509.235779	138.701431	194.414200	400.070648	12.711447	209.763931	314.042755	22.769012	178.581329	230.995880	27.104164	242.059052	314.007263	43.273308	183.174210	108.795670	41.794159	211.758438	127.566040	115.078720	136.941132	57.373791	94.048134	425.032440	79.420113	39.357353	351.222107	48.213036	106.021507	312.841736	38.233658	-5.434849	
1505	7.5250	264.844635	1528.884888	350.031525	253.036057	1536.554688	2.894924	198.030518	1571.461426	172.562180	342.131561	1485.307739	171.494537	234.746689	1282.446167	535.331909	306.440216	1137.962158	743.476562	199.905579	1294.512573	-194.246277	233.432281	1159.542236	-431.628235	173.646591	1035.523193	180.427948	315.194061	1095.917603	30.733669	317.880432	1076.561523	316.438293	368.312439	1029.830078	62.695435	374.654114	1020.794861	284.117645	196.857437	1068.123779	223.637650	194.406830	1072.181030	134.265091	269.115570	923.452698	334.300751	241.504105	954.039001	10.198171	272.842316	825.241028	350.540924	285.167999	736.377197	349.676605	251.120560	656.105225	337.767548	321.699829	732.730530	341.063690	254.405670	507.690308	312.244843	246.942078	506.844513	211.180450	201.419891	410.140472	339.892517	217.064926	322.622681	330.858368	189.368118	242.082489	323.638947	249.339355	323.291199	308.164642	187.087799	109.592682	305.757294	212.853622	124.553085	227.890381	136.842575	62.397411	249.260681	424.674133	81.047440	309.468384	317.306824	44.863289	355.998444	350.572083	47.232052	242.582550	259.181458	822.289917	-11.124754	281.741150	739.524231	-5.110448	317.698486	739.442078	7.161199	256.777740	652.607666	5.983299	245.068893	517.026611	38.699306	238.043015	509.232635	138.697769	194.412888	400.052277	12.705305	209.763412	314.050262	22.752485	178.583694	231.001389	27.116192	242.055939	314.021515	43.281326	183.175629	108.793930	41.800129	211.768311	127.562225	115.068008	136.942429	57.375954	94.047050	425.028534	79.436668	39.352322	351.252777	48.235600	106.014465	312.838867	38.234787	-5.428928	
